<?xml version="1.0" encoding="UTF-8" standalone="no"?>
<svg width="1000px" height="1000px" viewBox="0 0 1000 1000" version="1.1" xmlns="http://www.w3.org/2000/svg" xmlns:xlink="http://www.w3.org/1999/xlink">
    <!-- Generator: Sketch 39.1 (31720) - http://www.bohemiancoding.com/sketch -->
    <title>blueberry-blue</title>
    <desc>Created with Sketch.</desc>
    <defs></defs>
    <g id="Page-1" stroke="none" stroke-width="1" fill="none" fill-rule="evenodd">
        <g id="blueberry-blue">
            <path d="M356.730469,324.398436 C340.863281,349.066409 325.468751,357.265624 325.199218,398.332034 C324.929685,439.398444 346.337884,499.824942 332.295222,560.650391 C318.252561,621.475841 321.8522,714.710844 339.923663,757.591182 C357.995126,800.47152 397.615944,852.00253 431.665415,870.496926 C465.714886,888.991322 546.195321,913.3281 611.929693,896.000005 C673.093891,879.876644 691.466066,879.180788 735.156629,848.837902 C778.847191,818.495017 803.248516,759.027796 811.398456,723.726563 C826.164136,659.769445 813.26562,617.054691 799.132819,571.726568 C785.000017,526.398445 727.384713,455.460377 636.9297,412.265629 C596.863273,393.132812 564.656258,371.203127 532.328128,332.000001 C499.999999,292.796874 466.270551,298.788801 447.199221,292.929688 C408.408855,281.012473 363.243363,314.273145 356.730469,324.398436 Z" id="Path-2" fill="#71BCF3"></path>
            <g id="Group-Copy" transform="translate(386.855829, 525.272926) rotate(7.000000) translate(-386.855829, -525.272926) translate(361.355829, 483.772926)" fill="#6B8ADE">
                <path d="M36.1213833,4.4811978 C37.9471229,4.4811978 39.4271773,3.47804751 39.4271773,2.2405989 C39.4271773,1.0031503 37.9471229,0 36.1213833,0 C34.2956437,0 32.8155893,1.0031503 32.8155893,2.2405989 C32.8155893,3.47804751 34.2956437,4.4811978 36.1213833,4.4811978 Z" id="Oval-1"></path>
                <ellipse id="Oval-1-Copy" cx="27.8568983" cy="9.70926191" rx="4.95869103" ry="3.7343315"></ellipse>
                <ellipse id="Oval-1-Copy-2" cx="36.1213833" cy="17.1779249" rx="3.30579402" ry="2.2405989"></ellipse>
                <ellipse id="Oval-1-Copy-3" cx="47.6916624" cy="9.70926191" rx="3.30579402" ry="2.2405989"></ellipse>
                <ellipse id="Oval-1-Copy-4" cx="49.3445594" cy="21.6591227" rx="1.65289701" ry="2.2405989"></ellipse>
                <path d="M10.0215751,15.5835111 C11.2879339,15.5835111 12.3145206,15.0651283 12.3145206,14.4256707 C12.3145206,13.7862131 11.2879339,13.2678303 10.0215751,13.2678303 C8.75521633,13.2678303 7.72862967,13.7862131 7.72862967,14.4256707 C7.72862967,15.0651283 8.75521633,15.5835111 10.0215751,15.5835111 Z" id="Oval-1"></path>
                <ellipse id="Oval-1-Copy" cx="3.66701362" cy="14.4320639" rx="3.43941819" ry="1.92973398"></ellipse>
                <ellipse id="Oval-1-Copy-2" cx="6.16210717" cy="21.1104653" rx="2.29294546" ry="1.15784039"></ellipse>
                <ellipse id="Oval-1-Copy-3" cx="15.0419627" cy="21.7807225" rx="2.29294546" ry="1.15784039"></ellipse>
                <ellipse id="Oval-1-Copy-4" cx="12.7936646" cy="28.275031" rx="1.14647273" ry="1.15784039"></ellipse>
                <path d="M28.8891895,26.3272689 C29.8782262,26.3272689 30.6799989,25.7838439 30.6799989,25.1134952 C30.6799989,24.4431466 29.8782262,23.8997216 28.8891895,23.8997216 C27.9001527,23.8997216 27.0983801,24.4431466 27.0983801,25.1134952 C27.0983801,25.7838439 27.9001527,26.3272689 28.8891895,26.3272689 Z" id="Oval-1"></path>
                <ellipse id="Oval-1-Copy" cx="24.4121659" cy="29.1594073" rx="2.68621412" ry="2.02295605"></ellipse>
                <ellipse id="Oval-1-Copy-2" cx="28.8891895" cy="33.2053194" rx="1.79080941" ry="1.21377363"></ellipse>
                <ellipse id="Oval-1-Copy-3" cx="35.1570224" cy="29.1594073" rx="1.79080941" ry="1.21377363"></ellipse>
                <ellipse id="Oval-1-Copy-4" cx="36.0524271" cy="35.6328667" rx="0.895404705" ry="1.21377363"></ellipse>
                <path d="M21.485631,42.9153321 C23.3113707,42.9153321 24.7914251,41.9121818 24.7914251,40.6747332 C24.7914251,39.4372846 23.3113707,38.4341343 21.485631,38.4341343 C19.6598914,38.4341343 18.179837,39.4372846 18.179837,40.6747332 C18.179837,41.9121818 19.6598914,42.9153321 21.485631,42.9153321 Z" id="Oval-1"></path>
                <ellipse id="Oval-1-Copy" cx="13.221146" cy="48.1433962" rx="4.95869103" ry="3.7343315"></ellipse>
                <ellipse id="Oval-1-Copy-2" cx="21.485631" cy="55.6120592" rx="3.30579402" ry="2.2405989"></ellipse>
                <ellipse id="Oval-1-Copy-3" cx="33.0559101" cy="48.1433962" rx="3.30579402" ry="2.2405989"></ellipse>
                <ellipse id="Oval-1-Copy-4" cx="34.7088071" cy="60.093257" rx="1.65289701" ry="2.2405989"></ellipse>
                <path d="M39.2930797,68.4148786 C40.5594385,68.4148786 41.5860252,67.8964958 41.5860252,67.2570382 C41.5860252,66.6175806 40.5594385,66.0991978 39.2930797,66.0991978 C38.0267209,66.0991978 37.0001342,66.6175806 37.0001342,67.2570382 C37.0001342,67.8964958 38.0267209,68.4148786 39.2930797,68.4148786 Z" id="Oval-1"></path>
                <ellipse id="Oval-1-Copy" cx="32.9385182" cy="67.2634314" rx="3.43941819" ry="1.92973398"></ellipse>
                <ellipse id="Oval-1-Copy-2" cx="35.4336117" cy="73.9418328" rx="2.29294546" ry="1.15784039"></ellipse>
                <ellipse id="Oval-1-Copy-3" cx="44.3134673" cy="74.61209" rx="2.29294546" ry="1.15784039"></ellipse>
                <ellipse id="Oval-1-Copy-4" cx="42.0651692" cy="81.1063984" rx="1.14647273" ry="1.15784039"></ellipse>
                <path d="M14.2534372,64.7614031 C15.2424739,64.7614031 16.0442466,64.2179782 16.0442466,63.5476295 C16.0442466,62.8772809 15.2424739,62.3338559 14.2534372,62.3338559 C13.2644005,62.3338559 12.4626278,62.8772809 12.4626278,63.5476295 C12.4626278,64.2179782 13.2644005,64.7614031 14.2534372,64.7614031 Z" id="Oval-1"></path>
                <ellipse id="Oval-1-Copy" cx="9.77641367" cy="67.5935416" rx="2.68621412" ry="2.02295605"></ellipse>
                <ellipse id="Oval-1-Copy-2" cx="14.2534372" cy="71.6394537" rx="1.79080941" ry="1.21377363"></ellipse>
                <ellipse id="Oval-1-Copy-3" cx="20.5212701" cy="67.5935416" rx="1.79080941" ry="1.21377363"></ellipse>
                <ellipse id="Oval-1-Copy-4" cx="21.4166748" cy="74.067001" rx="0.895404705" ry="1.21377363"></ellipse>
            </g>
            <g id="stem-and-leaf" transform="translate(329.339996, 112.209999)">
                <g id="leaf" transform="translate(50.000000, 0.000000)">
                    <path d="M0.578626771,177.058752 C0.578626771,177.058752 12.9216575,159.293085 30.1019753,146.763615 C47.2822932,134.234145 56.4894144,131.138765 56.4894144,131.138765 C56.4894144,131.138765 46.6011041,101.275071 51.5002054,79.6416707 C58.2974611,49.6264202 77.7578416,33.7139056 90.5457012,26.0635354 C103.333561,18.4131652 119.42442,12.9911761 159.615467,8.79975339 C182.39456,6.42417934 201.770785,5.9766365 225.834206,3.47576633 C249.897628,0.974896166 245.277981,-2.05071017 245.277981,3.47576639 C245.277981,9.00224294 228.424725,78.2457017 200.676066,100.283621 C172.927407,122.321541 148.474935,129.121302 114.815817,133.021393 C76.9147367,137.413 58.6406943,133.021393 58.6406943,133.021393 C58.6406943,133.021393 54.7388994,134.803341 53.2803668,135.530243 C45.1463993,139.584046 41.0135225,141.328688 33.7177766,146.763611 C15.3832433,160.421817 6.65267723,172.094698 5.68086701,184.681381 C4.70905678,197.268065 0.578626771,177.058752 0.578626771,177.058752 Z" id="Path-6" fill="#44740D"></path>
                    <path d="M244.901177,0.405294768 C246.289119,0.176572169 245.277981,0.89023877 245.277981,3.47576639 C245.277981,9.00224294 228.424725,78.2457017 200.676066,100.283621 C172.927407,122.321541 148.474935,129.121302 114.815817,133.021393 C76.9147367,137.413 58.6406943,133.021393 58.6406943,133.021393 C58.6406943,133.021393 57.9018265,133.358833 56.9469552,133.799932 C58.8542622,123.936378 64.1347257,107.171159 78.7534151,89.6024783 C101.714864,62.0075035 174.525216,39.8393105 182.737332,35.9157818 C189.486922,32.6910089 219.273424,17.7600333 244.901177,0.405294768 Z" id="Path-6-Copy" fill="#558F13"></path>
                </g>
                <path d="M68.3761689,203.03721 C65.0798987,205.947183 60.4800454,209.290563 53.482341,212.197963 C33.747966,220.397182 22.2167161,226.99619 45.6171072,226.99619 C69.0174982,226.99619 68.6835138,222.796972 74.5174982,218.06455 C80.3514825,213.332128 86.1542175,201.062597 80.0174988,196.697363 C76.0568278,193.880017 74.3757804,197.740707 68.3761689,203.03721 Z" id="shadow" fill="#6B8ADE"></path>
                <path d="M66.3575491,211.509388 C66.1540106,219.380735 60.5281003,224.827778 54.0255179,211.50939 C40.1583304,183.107046 31.5567679,175.708609 23.2247367,166.575796 C14.8927054,157.442984 6.62708044,151.575796 1.75989294,145.907828 C-3.10729456,140.239859 12.4239554,127.044546 3.95911169,117.575796 C-4.50573206,108.107046 11.3057151,103.177359 19.3575492,110.376578 C27.4093833,117.575796 43.5606742,164.775018 54.6934867,181.04064 C60.6059162,189.67901 66.58807,202.594565 66.3575491,211.509388 Z" id="stem" stroke="#6C4523" fill="#6E4827"></path>
            </g>
        </g>
    </g>
</svg>