<?xml version="1.0" encoding="UTF-8" standalone="no"?>
<svg width="1000px" height="1000px" viewBox="0 0 1000 1000" version="1.1" xmlns="http://www.w3.org/2000/svg" xmlns:xlink="http://www.w3.org/1999/xlink">
    <!-- Generator: Sketch 39.1 (31720) - http://www.bohemiancoding.com/sketch -->
    <title>blueberry-green</title>
    <desc>Created with Sketch.</desc>
    <defs></defs>
    <g id="Page-1" stroke="none" stroke-width="1" fill="none" fill-rule="evenodd">
        <g id="blueberry-green">
            <path d="M356.730469,324.398436 C340.863281,349.066409 325.468751,357.265624 325.199218,398.332034 C324.929685,439.398444 346.337884,499.824942 332.295222,560.650391 C318.252561,621.475841 321.8522,714.710844 339.923663,757.591182 C357.995126,800.47152 397.615944,852.00253 431.665415,870.496926 C465.714886,888.991322 546.195321,913.3281 611.929693,896.000005 C673.093891,879.876644 691.466066,879.180788 735.156629,848.837902 C778.847191,818.495017 803.248516,759.027796 811.398456,723.726563 C826.164136,659.769445 813.26562,617.054691 799.132819,571.726568 C785.000017,526.398445 727.384713,455.460377 636.9297,412.265629 C596.863273,393.132812 564.656258,371.203127 532.328128,332.000001 C499.999999,292.796874 466.270551,298.788801 447.199221,292.929688 C408.408855,281.012473 363.243363,314.273145 356.730469,324.398436 Z" id="Path-2" fill="#CBF371"></path>
            <g id="Group-Copy" transform="translate(384.313529, 525.464526) rotate(7.000000) translate(-384.313529, -525.464526) translate(356.313529, 483.464526)" stroke="#8EDE6C" fill="#8EDE6B">
                <g id="pear-spots" transform="translate(27.898207, 0.000000)">
                    <path d="M13.2231761,4.4811978 C15.0489157,4.4811978 16.5289701,3.47804751 16.5289701,2.2405989 C16.5289701,1.0031503 15.0489157,0 13.2231761,0 C11.3974364,0 9.91738205,1.0031503 9.91738205,2.2405989 C9.91738205,3.47804751 11.3974364,4.4811978 13.2231761,4.4811978 Z" id="Oval-1"></path>
                    <ellipse id="Oval-1-Copy" cx="4.95869103" cy="9.70926191" rx="4.95869103" ry="3.7343315"></ellipse>
                    <ellipse id="Oval-1-Copy-2" cx="13.2231761" cy="17.1779249" rx="3.30579402" ry="2.2405989"></ellipse>
                    <ellipse id="Oval-1-Copy-3" cx="24.7934551" cy="9.70926191" rx="3.30579402" ry="2.2405989"></ellipse>
                    <ellipse id="Oval-1-Copy-4" cx="26.4463521" cy="21.6591227" rx="1.65289701" ry="2.2405989"></ellipse>
                </g>
                <g id="pear-spots-copy-2" transform="translate(12.123242, 20.048757) rotate(30.000000) translate(-12.123242, -20.048757) translate(2.378223, 13.873608)">
                    <path d="M9.17178185,2.31568078 C10.4381407,2.31568078 11.4647273,1.79729798 11.4647273,1.15784039 C11.4647273,0.518382799 10.4381407,0 9.17178185,0 C7.90542303,0 6.87883638,0.518382799 6.87883638,1.15784039 C6.87883638,1.79729798 7.90542303,2.31568078 9.17178185,2.31568078 Z" id="Oval-1"></path>
                    <ellipse id="Oval-1-Copy" cx="3.43941819" cy="5.01730835" rx="3.43941819" ry="1.92973398"></ellipse>
                    <ellipse id="Oval-1-Copy-2" cx="9.17178185" cy="8.87677631" rx="2.29294546" ry="1.15784039"></ellipse>
                    <ellipse id="Oval-1-Copy-3" cx="17.197091" cy="5.01730835" rx="2.29294546" ry="1.15784039"></ellipse>
                    <ellipse id="Oval-1-Copy-4" cx="18.3435637" cy="11.1924571" rx="1.14647273" ry="1.15784039"></ellipse>
                </g>
                <g id="pear-spots-copy-5" transform="translate(26.725952, 23.899722)">
                    <path d="M7.16323764,2.42754726 C8.15227437,2.42754726 8.95404705,1.88412229 8.95404705,1.21377363 C8.95404705,0.543424963 8.15227437,0 7.16323764,0 C6.17420091,0 5.37242823,0.543424963 5.37242823,1.21377363 C5.37242823,1.88412229 6.17420091,2.42754726 7.16323764,2.42754726 Z" id="Oval-1"></path>
                    <ellipse id="Oval-1-Copy" cx="2.68621412" cy="5.25968572" rx="2.68621412" ry="2.02295605"></ellipse>
                    <ellipse id="Oval-1-Copy-2" cx="7.16323764" cy="9.30559781" rx="1.79080941" ry="1.21377363"></ellipse>
                    <ellipse id="Oval-1-Copy-3" cx="13.4310706" cy="5.25968572" rx="1.79080941" ry="1.21377363"></ellipse>
                    <ellipse id="Oval-1-Copy-4" cx="14.3264753" cy="11.7331451" rx="0.895404705" ry="1.21377363"></ellipse>
                </g>
                <g id="pear-spots-copy" transform="translate(13.262455, 38.434134)">
                    <path d="M13.2231761,4.4811978 C15.0489157,4.4811978 16.5289701,3.47804751 16.5289701,2.2405989 C16.5289701,1.0031503 15.0489157,0 13.2231761,0 C11.3974364,0 9.91738205,1.0031503 9.91738205,2.2405989 C9.91738205,3.47804751 11.3974364,4.4811978 13.2231761,4.4811978 Z" id="Oval-1"></path>
                    <ellipse id="Oval-1-Copy" cx="4.95869103" cy="9.70926191" rx="4.95869103" ry="3.7343315"></ellipse>
                    <ellipse id="Oval-1-Copy-2" cx="13.2231761" cy="17.1779249" rx="3.30579402" ry="2.2405989"></ellipse>
                    <ellipse id="Oval-1-Copy-3" cx="24.7934551" cy="9.70926191" rx="3.30579402" ry="2.2405989"></ellipse>
                    <ellipse id="Oval-1-Copy-4" cx="26.4463521" cy="21.6591227" rx="1.65289701" ry="2.2405989"></ellipse>
                </g>
                <g id="pear-spots-copy-3" transform="translate(41.394746, 72.880124) rotate(30.000000) translate(-41.394746, -72.880124) translate(31.649728, 66.704976)">
                    <path d="M9.17178185,2.31568078 C10.4381407,2.31568078 11.4647273,1.79729798 11.4647273,1.15784039 C11.4647273,0.518382799 10.4381407,0 9.17178185,0 C7.90542303,0 6.87883638,0.518382799 6.87883638,1.15784039 C6.87883638,1.79729798 7.90542303,2.31568078 9.17178185,2.31568078 Z" id="Oval-1"></path>
                    <ellipse id="Oval-1-Copy" cx="3.43941819" cy="5.01730835" rx="3.43941819" ry="1.92973398"></ellipse>
                    <ellipse id="Oval-1-Copy-2" cx="9.17178185" cy="8.87677631" rx="2.29294546" ry="1.15784039"></ellipse>
                    <ellipse id="Oval-1-Copy-3" cx="17.197091" cy="5.01730835" rx="2.29294546" ry="1.15784039"></ellipse>
                    <ellipse id="Oval-1-Copy-4" cx="18.3435637" cy="11.1924571" rx="1.14647273" ry="1.15784039"></ellipse>
                </g>
                <g id="pear-spots-copy-6" transform="translate(12.090200, 62.333856)">
                    <path d="M7.16323764,2.42754726 C8.15227437,2.42754726 8.95404705,1.88412229 8.95404705,1.21377363 C8.95404705,0.543424963 8.15227437,0 7.16323764,0 C6.17420091,0 5.37242823,0.543424963 5.37242823,1.21377363 C5.37242823,1.88412229 6.17420091,2.42754726 7.16323764,2.42754726 Z" id="Oval-1"></path>
                    <ellipse id="Oval-1-Copy" cx="2.68621412" cy="5.25968572" rx="2.68621412" ry="2.02295605"></ellipse>
                    <ellipse id="Oval-1-Copy-2" cx="7.16323764" cy="9.30559781" rx="1.79080941" ry="1.21377363"></ellipse>
                    <ellipse id="Oval-1-Copy-3" cx="13.4310706" cy="5.25968572" rx="1.79080941" ry="1.21377363"></ellipse>
                    <ellipse id="Oval-1-Copy-4" cx="14.3264753" cy="11.7331451" rx="0.895404705" ry="1.21377363"></ellipse>
                </g>
            </g>
            <g id="stem-and-leaf" transform="translate(329.339996, 112.209999)">
                <g id="leaf" transform="translate(50.000000, 0.000000)">
                    <path d="M0.578626771,177.058752 C0.578626771,177.058752 12.9216575,159.293085 30.1019753,146.763615 C47.2822932,134.234145 56.4894144,131.138765 56.4894144,131.138765 C56.4894144,131.138765 46.6011041,101.275071 51.5002054,79.6416707 C58.2974611,49.6264202 77.7578416,33.7139056 90.5457012,26.0635354 C103.333561,18.4131652 119.42442,12.9911761 159.615467,8.79975339 C182.39456,6.42417934 201.770785,5.9766365 225.834206,3.47576633 C249.897628,0.974896166 245.277981,-2.05071017 245.277981,3.47576639 C245.277981,9.00224294 228.424725,78.2457017 200.676066,100.283621 C172.927407,122.321541 148.474935,129.121302 114.815817,133.021393 C76.9147367,137.413 58.6406943,133.021393 58.6406943,133.021393 C58.6406943,133.021393 54.7388994,134.803341 53.2803668,135.530243 C45.1463993,139.584046 41.0135225,141.328688 33.7177766,146.763611 C15.3832433,160.421817 6.65267723,172.094698 5.68086701,184.681381 C4.70905678,197.268065 0.578626771,177.058752 0.578626771,177.058752 Z" id="Path-6" fill="#44740D"></path>
                    <path d="M244.901177,0.405294768 C246.289119,0.176572169 245.277981,0.89023877 245.277981,3.47576639 C245.277981,9.00224294 228.424725,78.2457017 200.676066,100.283621 C172.927407,122.321541 148.474935,129.121302 114.815817,133.021393 C76.9147367,137.413 58.6406943,133.021393 58.6406943,133.021393 C58.6406943,133.021393 57.9018265,133.358833 56.9469552,133.799932 C58.8542622,123.936378 64.1347257,107.171159 78.7534151,89.6024783 C101.714864,62.0075035 174.525216,39.8393105 182.737332,35.9157818 C189.486922,32.6910089 219.273424,17.7600333 244.901177,0.405294768 Z" id="Path-6-Copy" fill="#558F13"></path>
                </g>
                <path d="M68.3761689,203.03721 C65.0798987,205.947183 60.4800454,209.290563 53.482341,212.197963 C33.747966,220.397182 22.2167161,226.99619 45.6171072,226.99619 C69.0174982,226.99619 68.6835138,222.796972 74.5174982,218.06455 C80.3514825,213.332128 86.1542175,201.062597 80.0174988,196.697363 C76.0568278,193.880017 74.3757804,197.740707 68.3761689,203.03721 Z" id="shadow" fill="#AECF62"></path>
                <path d="M66.3575491,211.509388 C66.1540106,219.380735 60.5281003,224.827778 54.0255179,211.50939 C40.1583304,183.107046 31.5567679,175.708609 23.2247367,166.575796 C14.8927054,157.442984 6.62708044,151.575796 1.75989294,145.907828 C-3.10729456,140.239859 12.4239554,127.044546 3.95911169,117.575796 C-4.50573206,108.107046 11.3057151,103.177359 19.3575492,110.376578 C27.4093833,117.575796 43.5606742,164.775018 54.6934867,181.04064 C60.6059162,189.67901 66.58807,202.594565 66.3575491,211.509388 Z" id="stem" stroke="#6C4523" fill="#6E4827"></path>
            </g>
        </g>
    </g>
</svg>