<?xml version="1.0" encoding="UTF-8" standalone="no"?>
<svg width="1000px" height="1000px" viewBox="0 0 1000 1000" version="1.1" xmlns="http://www.w3.org/2000/svg" xmlns:xlink="http://www.w3.org/1999/xlink">
    <!-- Generator: Sketch 39.1 (31720) - http://www.bohemiancoding.com/sketch -->
    <title>peach-yellow</title>
    <desc>Created with Sketch.</desc>
    <defs></defs>
    <g id="Page-1" stroke="none" stroke-width="1" fill="none" fill-rule="evenodd">
        <g id="peach-yellow">
            <g id="Path-8-Copy-2-+-Path-8" transform="translate(78.000000, 107.000000)">
                <path d="M10.4177386,662.695528 C10.7308472,660.377779 10.866634,658.851707 10.866634,658.851707 C10.866634,658.851707 11.1404189,628.887604 38.4305576,653.716319 C65.7206963,678.545034 158.075719,669.748309 236.732345,647.148775 C315.388972,624.549242 419.526739,576.399542 481.48106,518.452028 C543.435382,460.504514 594.38818,320.737692 611.622026,276.736571 C628.855871,232.735449 630.625993,191.205 637.914247,182.637711 C645.202501,174.070422 637.72559,150.518048 619.423245,118.022953 C601.1209,85.5278574 582.966458,71.4119241 590.92466,49.8983111 C598.882861,28.3846981 601.143773,31.6432477 605.105284,17.3542733 C609.066795,3.06529889 631.975982,-5.37217752 646.285949,5.52229061 C660.595917,16.4167587 654.212178,-4.5286981 653.814208,31.8289564 C653.798629,33.2521957 653.794165,34.5985839 653.800284,35.8730583 C639.91431,41.8469473 621.205924,34.9248128 621.205924,42.4167651 C621.205924,52.6823901 612.29406,65.7527026 627.0614,89.8855151 C641.828741,114.018328 664.049923,167.487078 675.760876,193.08864 C687.471829,218.690203 665.913384,311.61989 645.820756,446.15114 C625.728129,580.68239 530.052293,635.08864 372.235115,716.823015 C214.417937,798.55739 69.3798882,704.018328 53.942014,704.018328 C41.1926421,704.018328 32.2560705,687.740224 10.4177386,662.695528 L10.4177386,662.695528 Z" id="Path-8-Copy-2" fill="#FFF262"></path>
                <path d="M590.096381,67.9038876 C588.500137,62.1040207 588.54476,56.3319564 590.92466,49.8983111 C598.882861,28.3846981 601.143773,31.6432477 605.105284,17.3542733 C609.066795,3.06529889 631.975982,-5.37217752 646.285949,5.52229061 C656.324629,13.1649411 656.179407,5.13835027 655.060952,12.2177493 C650.647692,20.9524013 645.926697,31.7424274 640.246725,37.265625 C639.759142,37.7397505 639.279261,38.1725541 638.807237,38.5694909 C629.308732,38.7985819 621.205924,37.4862236 621.205924,42.4167651 C621.205924,49.372959 617.113872,57.6169785 619.070224,69.7181771 C615.049644,69.3537759 611.054224,63.6992188 607.34573,63.6992188 C602.455121,63.6992188 601.689075,69.5 605.515407,75.0664062 C609.341738,80.6328125 601.790435,76.3320312 599.328562,76.3320312 C596.866688,76.3320312 599.65993,73.3007812 596.001232,68.5 C594.386581,66.3813271 592.357369,66.7880921 590.096381,67.9038876 Z" id="Path-8-Copy-3" fill="#605918"></path>
                <path d="M3.15280313,684.354073 C-2.6950431,688.885125 1.18030285,694.920177 3.01262546,701.323026 C4.84494806,707.725874 17.4836833,720.323023 17.4836833,720.323023 C17.4836833,720.323023 40.4377764,740.823032 60.8968502,754.322997 C84.6213216,769.977643 242.089666,845.978844 365.319253,823.221433 C488.54884,800.464022 684.569175,701.756307 734.189263,580.209651 C783.80935,458.662996 772.136186,316.763985 757.024284,263.95712 L733.948879,183.32267 C729.444998,167.584358 712.817915,144.963037 694.925689,124.416768 C677.033463,103.870499 670.779989,91.1140008 665.525648,72.7532878 C660.271307,54.3925748 659.334425,66.9462945 659.732395,30.5886399 C660.130365,-5.76901464 648.698409,15.1488943 645.820765,19.5222337 C642.267325,24.9226244 638.567422,29.3141658 638.573541,30.5886402 C624.687567,36.5625292 621.205924,34.9248128 621.205924,42.4167651 C621.205924,52.6823901 612.29406,65.7527026 627.0614,89.8855151 C641.828741,114.018328 664.049923,167.487078 675.760876,193.08864 C687.471829,218.690203 665.913384,311.61989 645.820756,446.15114 C625.728129,580.68239 530.052293,635.08864 372.235115,716.823015 C214.417937,798.55739 69.3798882,704.018328 53.942014,704.018328 C41.1926421,704.018328 32.2560705,687.740224 10.4177386,662.695528 C10.5742929,661.536654 10.6865168,660.575698 10.759602,659.904462 C10.2908295,664.209806 8.21189673,680.434167 3.15280313,684.354073 Z" id="Path-8" fill="#FAE838"></path>
            </g>
            <path d="M90.866211,754.132812 C86.7680431,757.502075 87.7898081,758.596697 87.6494141,760.949219 C87.6160895,760.910961 85.4246937,776.975081 85.5,776.283203 C83.4492188,783.649414 83.5292406,786.908774 78.3164063,790.949219 C72.2908499,795.619601 78.5280108,805.683466 80.4160158,812.283203 C82.3040209,818.882941 90.866211,820.46582 90.866211,820.46582 C90.866211,820.46582 98.21562,822.454287 99.6622982,823.71582 C107.670214,828.73049 109.649412,816.732422 110.899412,808.549805 C112.271945,799.565077 111.666648,800.151207 117.299803,788.362066 C120.804689,781.026994 118.783201,778.449219 118.783201,771.932617 C118.783201,765.416016 119.811488,768.124058 112.616209,760.949219 C104.383747,752.740143 104.21883,754.059988 98.5332032,751.821947 L90.866211,754.132812 Z" id="Path-8-Copy-4" fill="#605918"></path>
            <g id="Group" transform="translate(695.000000, 492.000000)">
                <ellipse id="Oval-91" cx="4" cy="9.5" rx="4" ry="4.5"></ellipse>
                <ellipse id="Oval-92" fill="#746D28" cx="12.5" cy="5" rx="4.5" ry="5"></ellipse>
                <ellipse id="Oval-92-Copy-2" fill="#746D28" cx="4" cy="13.5" rx="3" ry="3.5"></ellipse>
                <ellipse id="Oval-92-Copy" fill="#746D28" cx="15" cy="21.5" rx="7" ry="7.5"></ellipse>
            </g>
            <path d="" id="Path-12" stroke="#979797"></path>
        </g>
    </g>
</svg>