<?xml version="1.0" encoding="UTF-8" standalone="no"?>
<svg width="1000px" height="1000px" viewBox="0 0 1000 1000" version="1.1" xmlns="http://www.w3.org/2000/svg" xmlns:xlink="http://www.w3.org/1999/xlink">
    <!-- Generator: Sketch 39.1 (31720) - http://www.bohemiancoding.com/sketch -->
    <title>tangerine-blue</title>
    <desc>Created with Sketch.</desc>
    <defs></defs>
    <g id="Page-1" stroke="none" stroke-width="1" fill="none" fill-rule="evenodd">
        <g id="tangerine-blue">
            <g id="berry" transform="translate(122.000000, 74.000000)">
                <path d="M431,160 C418.236488,161.750236 405.002006,152.565748 378,154 C366.495474,154.61108 339,164 339,164 C339,164 308.265121,168.82458 299,170.996093 C251.801828,182.058165 264.48161,197.255318 239,205.000001 C194.01523,218.672323 180,247.000001 180,247.000001 C180,247.000001 109,283.996094 109,336.996094 C109,336.996094 83,372.996094 95,442.996094 C95,442.996094 97,472.996094 113,478.996094 C113,478.996094 103,508.996094 143,541.996094 C143,541.996094 139,589.996094 196,618.996094 C196,618.996094 189,644.996094 219,662.996094 C219,662.996094 249,686.996094 261,680.996094 C261,680.996094 262,703.996094 283,712.996094 C283,712.996094 329,736.996094 339,731.996094 C339,731.996094 347,754.996094 403,756.996094 L431,755.996094 C431,755.996094 451,764.996094 473,743.996094 C473,743.996094 502,758.996094 549,713.996094 C549,713.996094 575,686.996094 577,672.996094 C577,672.996094 597,668.996094 611,639.996094 C611,639.996094 628,612.996094 624,597.996094 C624,597.996094 637,550.996094 626,537.996094 C626,537.996094 643,495.996094 631,478.996094 C631,478.996094 638,455.992187 634,440.996094 C634,440.996094 654,414.996094 640,389.996094 C640,389.996094 643,350.996094 637,343.996094 C637,343.996094 637,300.996094 620,278.996094 C620,278.996094 607,234.996094 593,223.996094 C593,223.996094 552,158.996094 501,170.996094 C485.864048,174.557494 473.938417,154.111937 431,160 Z" id="Path-217" fill="#0C61D0"></path>
                <path d="M256.441855,206.777778 C256.441855,206.777778 250.720948,206 253,217 C255.279052,228 261,221 265,217 C269,213 277.302421,207.406313 286.000002,204 C294.697582,200.593686 300.723562,204.979697 306.000002,198.075904 C311.276441,191.172112 309.324043,181.972127 308.000002,178 C305.000003,169 293.062397,180 284,180 C276.12203,180 274.579706,185.162443 269,187 C268.161108,187.276271 262.653485,194.477212 262,195 C257,199 256.441855,206.777778 256.441855,206.777778 Z" id="Path-18" fill="#52A6FF"></path>
                <path d="M191.54321,239.648073 C191.54321,239.648073 186.54321,243.648073 194.54321,251.648073 C202.54321,259.648073 210.543211,264.648073 215.54321,254.648073 C220.543209,244.648073 239.543211,236.648073 239.54321,230.648073 C239.543209,224.648073 250.543211,214.648073 243.54321,211.648073 C236.543209,208.648073 214.54321,216.648073 208.54321,223.648073 C202.54321,230.648073 191.54321,239.648073 191.54321,239.648073 Z" id="Path-13" fill="#52A6FF"></path>
                <path d="M355.060303,487.249024 C353.371582,484.749024 326.996094,456.996094 330.996094,499.996094 C330.996094,499.996094 323.996094,534.996094 318.996094,535.996094 C318.996094,535.996094 346.996094,558.996094 369.996094,559.996094 C369.996094,559.996094 383.996094,558.996094 390.996094,538.996094 C390.996094,538.996094 396.749023,526.999023 373.749023,504.999023 C350.749023,482.999023 356.749023,489.749024 355.060303,487.249024 Z" id="Path-218" fill="#52A6FF"></path>
                <path d="M419.998047,446.998047 C419.998047,446.998047 394.998047,404.998047 378.998047,440.498047 C362.998047,475.998047 358.498047,471.998046 358.498047,478.498047 C358.498047,484.998048 395.498047,513.998046 398.498047,516.498047 C401.498047,518.998048 414.498047,521.498046 422.498047,506.498047 C430.498047,491.498048 439.998047,494.998046 439.998047,487.998047 C439.998047,480.998048 441.998047,466.498046 433.998047,460.498047 C425.998047,454.498048 419.998047,446.998047 419.998047,446.998047 Z" id="Path-219" fill="#52A6FF"></path>
                <path d="M301.498047,557.498047 C301.498047,557.498047 307.998047,540.998047 331.998047,554.998047 C355.998047,568.998047 361.996094,555.498047 369.998047,565.998047 C378,576.498047 361.498047,593.998047 344.498047,605.498047 C327.498047,616.998047 312.498047,622.498047 306.998047,622.498047 C301.498047,622.498047 295.498047,622.998047 287.498047,607.498047 C279.498047,591.998047 301.498047,557.498047 301.498047,557.498047 Z" id="Path-220" fill="#52A6FF"></path>
                <path d="M263.998047,533.498047 C263.998047,533.498047 308.998047,533.498047 293.998047,555.498047 C278.998047,577.498047 275.998047,573.998047 275.998047,584.998047 C275.998047,595.998047 258.498047,596.998047 247.498047,592.998047 C236.498047,588.998047 213.498047,573.498047 208.498047,561.498047 C203.498047,549.498047 203.498047,534.498047 205.998047,529.998047 C208.498047,525.498047 212.498047,529.998047 233.998047,529.998047 C255.498047,529.998047 263.998047,533.498047 263.998047,533.498047 Z" id="Path-221" fill="#52A6FF"></path>
                <path d="M147.498047,500.498047 C147.498047,500.498047 158.998047,481.498047 169.998047,505.998047 C180.998047,530.498047 192.998047,518.49805 192.998047,543.498047 C192.998047,568.498044 196.498047,578.498046 178.998047,560.998047 C161.498047,543.498048 152.998047,535.998047 145.998047,516.998047 C138.998047,497.998047 147.498047,500.498047 147.498047,500.498047 Z" id="Path-222" fill="#52A6FF"></path>
                <path d="M196.498047,609.99805 L193.498047,618.998047 C193.498047,618.998047 134.998047,579.998047 144.498047,540.998047 C144.498047,540.998047 146.498047,532.998047 192.498047,584.998047 C200.172389,593.67339 196.498047,609.99805 196.498047,609.99805 Z" id="Path-223" fill="#52A6FF"></path>
                <path d="M215.998047,652.498047 C215.998047,652.498047 203.498047,650.498047 200.998047,637.498047 C198.498047,624.498047 206.998047,625.998047 206.998047,618.998047 C206.998047,611.998047 206.998047,597.498047 204.998047,587.998047 C202.998047,578.498047 210.498046,570.498047 227.498047,590.998047 C244.498047,611.498047 270.99805,607.998048 274.498047,607.998047 C277.998044,607.998046 300.49805,633.99805 284.498047,644.998047 C268.498044,655.998044 274.998047,665.498047 274.998047,665.498047 C274.998047,665.498047 273.998046,679.99805 257.998047,679.998047 C241.998047,679.998044 215.998047,652.498047 215.998047,652.498047 Z" id="Path-224" fill="#52A6FF"></path>
                <path d="M241.498047,454.998047 C241.498047,454.998047 242.998047,413.498047 261.498047,431.998047 C279.998047,450.498047 308.498047,461.998044 314.498047,461.998047 C320.498047,461.99805 331.498047,475.498048 318.998047,497.998047 C306.498047,520.498046 323.886936,531.498047 301.498047,534.998046 C279.109158,538.498045 244.498047,512.498048 240.498047,507.998047 C236.498047,503.498046 235.498047,478.998048 237.998047,471.498047 C240.498047,463.998046 241.498047,454.998047 241.498047,454.998047 Z" id="Path-225" fill="#52A6FF"></path>
                <path d="M181.998047,407.498047 C181.998047,407.498047 229.998047,406.998047 229.998047,450.998047 C229.998047,494.998047 236.998047,498.49805 225.998047,506.498047 C214.998047,514.498044 199.998047,516.99805 187.498047,506.498047 C174.998047,495.998044 162.498047,489.49805 162.498047,486.498047 C162.498047,483.498044 150.498047,466.498047 157.998047,436.998047 C165.498047,407.498047 181.998047,407.498047 181.998047,407.498047 Z" id="Path-226" fill="#52A6FF"></path>
                <path d="M137.498048,507.532768 C137.498048,507.532768 157.998047,545.998047 133.998047,532.998047 C109.998047,519.998047 112.998047,478.998047 112.998047,478.998047 C112.998047,478.998047 125.998047,482.963326 131.998048,495.498047 C137.998049,508.032768 137.498048,507.532768 137.498048,507.532768 Z" id="Path-227" fill="#52A6FF"></path>
                <path d="M152.498047,370.998047 C152.498047,370.998047 107.998047,379.998047 107.998047,424.998047 C107.998047,469.998047 123.498047,479.998047 123.498047,479.998047 C123.498047,479.998047 137.498047,492.498047 143.998047,492.498047 C150.498047,492.498047 159.998047,481.498047 153.998047,474.998047 C147.998047,468.498047 147.498047,423.998047 152.498047,412.498047 C157.498047,400.998047 174.498047,389.498047 169.498047,381.498047 C164.498047,373.498047 152.498047,370.998047 152.498047,370.998047 Z" id="Path-228" fill="#52A6FF"></path>
                <path d="M304.498047,335.998047 C304.498047,335.998047 322.498047,413.498047 327.498047,426.998047 C332.498047,440.498047 337.498047,455.498047 330.998047,455.498047 C324.498047,455.498047 292.498047,434.998047 284.498047,434.998047 C276.498047,434.998047 249.498047,406.998047 256.498047,389.998047 C263.498047,372.998047 267.498046,344.998047 279.498047,338.498047 C291.498047,331.998047 304.498047,335.998047 304.498047,335.998047 Z" id="Path-229" fill="#52A6FF"></path>
                <path d="M331.998046,331 C331.998046,331 361.996094,328.798232 369.998047,355 C378.000001,381.201768 389.498047,383.998045 389.498047,400.498047 C389.498047,416.998049 375.500001,435.499995 362.000001,438.999997 C348.500001,442.499999 337.998047,438.498045 331.998047,410.998047 C325.998047,383.498049 317.5,368.999999 321,350.999999 C324.5,332.999999 331.998046,331 331.998046,331 Z" id="Path-230" fill="#52A6FF"></path>
                <path d="M399.998047,298.498047 C399.998047,298.498047 355.498047,284.998047 369.998047,320.998047 C384.498047,356.998047 394.498048,379.498047 398.498047,390.998047 C402.498046,402.498046 425.998044,406.498047 432.498047,390.498047 C438.99805,374.498046 458.998044,372.498047 454.498047,355.498047 C449.99805,338.498046 444.998048,323.998047 431.498047,313.998047 C417.998046,303.998047 399.998047,298.498047 399.998047,298.498047 Z" id="Path-231" fill="#52A6FF"></path>
                <path d="M503.498047,405.998047 C503.498047,405.998047 492.498047,366.498047 474.998047,366.498047 C457.498047,366.498047 449.498047,377.998047 443.498047,391.998047 C437.498047,405.998047 411.998047,401.498047 424.998047,428.498047 C437.998047,455.498047 451.998047,464.498047 451.998047,474.498047 C451.998047,484.498047 477.498045,486.998047 490.498047,462.998047 C503.498049,438.998047 506.498045,441.998047 506.498047,429.998047 C506.498049,417.998047 503.498047,405.998047 503.498047,405.998047 Z" id="Path-232" fill="#52A6FF"></path>
                <path d="M442.998047,503.998047 C442.998047,503.998047 450.998047,478.998047 458.998047,493.498047 C466.998047,507.998047 474.498047,532.998046 468.498047,541.498047 C462.498047,549.998047 464.998047,563.498043 442.998047,561.498047 C420.998047,559.498051 413.498047,561.49805 407.998047,557.498047 C402.498047,553.498044 404.998047,545.998046 419.498047,532.498047 C433.998047,518.998047 442.998047,503.998047 442.998047,503.998047 Z" id="Path-233" fill="#52A6FF"></path>
                <path d="M350.998047,624.498047 C350.998047,624.498047 375.498047,615.998047 381.498047,594.498047 C387.498047,572.998047 397.498047,579.498047 397.498047,579.498047 C397.498047,579.498047 421.498047,596.99805 418.998047,630.498047 C416.498047,663.998044 394.996094,656.99805 386.498047,662.498047 C378,667.998044 346.498047,664.998046 337.998047,649.498047 C329.498047,633.998048 329.498047,627.185943 335.498047,624.498047 C341.498047,621.810151 350.998047,624.498047 350.998047,624.498047 Z" id="Path-234" fill="#52A6FF"></path>
                <path d="M281.998047,682.998047 C281.998047,682.998047 282.998047,673.998047 274.498047,678.498047 C265.998047,682.998047 263.729906,694.998047 270.998047,698.998047 C278.266187,702.998047 284.998047,711.498049 287.498047,711.498047 C289.998047,711.498045 303.498047,714.498047 299.498047,708.498047 C295.498047,702.498047 288.498047,695.998047 288.498047,692.498047 C288.498047,688.998047 281.998047,682.998047 281.998047,682.998047 Z" id="Path-235" fill="#52A6FF"></path>
                <path d="M334.998047,658.998047 C334.998047,658.998047 312.998047,623.498047 297.498047,644.998047 C281.998047,666.498047 287.498047,682.498046 293.998047,689.998047 C300.498047,697.498048 309.498046,710.998049 315.498047,714.498047 C321.498048,717.998044 335.998046,722.498049 340.998047,722.498047 C345.998048,722.498044 357.996096,720.498049 367.998047,714.498047 C377.999998,708.498044 393.998049,699.705638 380.998047,689.998047 C367.998044,680.290456 370.998046,677.498048 352.998047,672.998047 C334.998048,668.498046 334.998047,658.998047 334.998047,658.998047 Z" id="Path-236" fill="#52A6FF"></path>
                <path d="M358.498047,744.998047 C358.498047,744.998047 337.996094,733.998047 357.998047,726.498047 C378,718.998047 383.498045,708.998047 394.998047,716.498047 C406.498049,723.998047 417.498047,720.498047 417.498047,720.498047 C417.498047,720.498047 427.498045,717.998047 430.998047,729.498047 C434.498049,740.998047 441.498047,745.998047 441.498047,745.998047 C441.498047,745.998047 451.998045,757.498047 426.998047,752.998047 C401.998049,748.498047 387.498047,755.998047 375.498047,750.998047 C363.498047,745.998047 358.498047,744.998047 358.498047,744.998047 Z" id="Path-237" fill="#52A6FF"></path>
                <path d="M472.998047,694.998047 C472.998047,694.998047 467.498047,713.998047 435.498047,710.998047 C403.498047,707.998047 398.498047,714.998047 394.998047,704.998047 C391.498047,694.998047 379.998047,685.498047 388.498047,676.998047 C396.998047,668.498047 410.498046,655.998047 417.498047,655.998047 C424.498047,655.998047 437.998046,668.998047 443.998047,657.998047 C449.998047,646.998047 475.498046,660.337429 478.998047,671.998047 C482.498047,683.658665 472.998047,694.998047 472.998047,694.998047 Z" id="Path-239" fill="#52A6FF"></path>
                <path d="M430.998047,608.498047 C430.998047,608.498047 400.998047,575.498047 420.998047,571.498047 C440.998047,567.498047 458.498047,571.998047 462.498047,578.498047 C466.498047,584.998047 488.498047,599.498046 475.498047,607.998047 C462.498047,616.498048 461.498047,626.998046 452.498047,626.998047 C443.498047,626.998048 434.998047,623.998046 434.998047,619.998047 C434.998047,615.998048 430.998047,608.498047 430.998047,608.498047 Z" id="Path-240" fill="#52A6FF"></path>
                <path d="M464.998047,728.998047 C464.998047,728.998047 487.998047,751.498047 504.998047,737.998047 C521.998047,724.498047 526.498047,707.998047 516.998047,700.498047 C507.498047,692.998047 503.498047,693.498047 492.498047,696.998047 C481.498047,700.498047 476.998047,698.567925 470.998047,708.498047 C464.998047,718.428169 464.998047,728.998047 464.998047,728.998047 Z" id="Path-241" fill="#52A6FF"></path>
                <path d="M507.498047,610.498047 C507.498047,610.498047 483.498047,626.998047 491.498047,649.498047 C499.498047,671.998047 493.998048,691.998047 509.998047,681.998047 C525.998046,671.998047 533.498048,674.998047 543.998047,658.498047 C554.498046,641.998047 562.498048,625.498047 556.498047,611.998047 C550.498046,598.498047 546.498048,593.998047 542.498047,593.998047 C538.498046,593.998047 532.784375,598.498047 528.498047,598.498047 C524.211719,598.498047 507.498047,610.498047 507.498047,610.498047 Z" id="Path-242" fill="#52A6FF"></path>
                <path d="M479.498047,547.998047 C479.498047,547.998047 464.998047,574.498047 485.998047,588.998047 C506.998047,603.498047 515.498047,598.998047 532.498047,590.998047 C549.498047,582.998047 552.498047,568.998047 552.498047,554.498047 C552.498047,539.998047 532.998047,530.498047 525.998047,536.498047 C518.998047,542.498047 515.498047,543.998046 508.498047,543.998047 C501.498047,543.998048 494.998047,536.498047 490.498047,536.498047 C485.998047,536.498047 479.498047,547.998047 479.498047,547.998047 Z" id="Path-243" fill="#52A6FF"></path>
                <path d="M479.998047,507.498047 C479.998047,507.498047 485.998047,543.498047 514.498047,526.998047 C542.998047,510.498047 546.998047,500.498047 546.998047,500.498047 C546.998047,500.498047 556.498047,488.998047 553.498047,463.498047 C550.498047,437.998047 540.998047,448.998047 532.498047,448.998047 C523.998047,448.998047 509.998047,443.998048 504.498047,460.998047 C498.998047,477.998046 489.998047,481.498046 484.998047,486.498047 C479.998047,491.498048 479.998047,507.498047 479.998047,507.498047 Z" id="Path-244" fill="#52A6FF"></path>
                <path d="M140.998047,340.998047 C140.998047,340.998047 139.998047,363.998047 120.998047,382.498047 C101.998047,400.998047 96.4980469,443.498047 100.998047,453.998047 C100.998047,453.998047 78.9980469,406.998047 101.998047,350.998047 C101.998047,350.998047 117.498048,327.998047 127.498048,327.998047 C137.498048,327.998047 140.998047,340.998047 140.998047,340.998047 Z" id="Path-245" fill="#52A6FF"></path>
                <path d="M468.998047,312.498047 C468.998047,312.498047 444.498047,312.998047 457.998047,333.998047 C471.498047,354.998047 481.498048,366.498047 486.998047,346.998047 C492.498045,327.498047 503.998047,324.998047 503.998047,324.998047 C503.998047,324.998047 513.998046,311.998047 498.998047,308.498047 C483.998047,304.998047 481.998046,309.498047 478.998047,309.498047 C475.998047,309.498047 468.998047,312.498047 468.998047,312.498047 Z" id="Path-246" fill="#52A6FF"></path>
                <path d="M520.998047,333.498047 C520.998047,333.498047 512.498047,326.498047 506.498047,332.998047 C500.498047,339.498047 498.248047,363.498046 505.998047,374.998047 C513.748047,386.498048 524.998048,397.996092 522.998047,411.998047 C520.998046,426.000001 520.998046,434.498046 528.498047,438.998047 C535.998048,443.498048 552.998046,446.998046 556.498047,430.498047 C559.998048,413.998048 566.498046,381.998047 562.998047,369.498047 C559.498048,356.998046 551.998046,342.998047 544.998047,339.498047 C537.998048,335.998047 520.998047,333.498047 520.998047,333.498047 Z" id="Path-247" fill="#52A6FF"></path>
                <path d="M590.498047,455.998047 C590.498047,455.998047 560.998047,446.998047 564.498047,462.998047 C567.998047,478.998047 547.998047,507.998047 551.498047,520.498047 C554.998047,532.998047 560.498047,545.998047 570.498047,538.998047 C580.498047,531.998047 587.498047,530.998047 587.498047,530.998047 C587.498047,530.998047 597.998049,526.498047 600.998047,523.498047 C603.998045,520.498047 610.498045,493.498047 610.498047,483.498047 C610.498049,473.498047 606.998049,465.498047 602.998047,461.998047 C598.998045,458.498047 590.498047,455.998047 590.498047,455.998047 Z" id="Path-248" fill="#52A6FF"></path>
                <path d="M575.998047,545.998047 C575.998047,545.998047 559.498047,546.498047 559.498047,559.498047 C559.498047,572.498047 553.498047,588.998047 557.498047,598.998047 C561.498047,608.998047 565.498047,610.998047 573.498047,604.998047 C581.498047,598.998047 604.998047,580.998047 607.998047,563.498047 C610.998047,545.998047 609.498047,535.498047 609.498047,533.498047 C609.498047,531.498047 600.498047,526.998047 594.998047,533.998047 C589.498047,540.998047 575.998047,545.998047 575.998047,545.998047 Z" id="Path-249" fill="#52A6FF"></path>
                <path d="M561.998047,661.498047 C561.998047,661.498047 554.998047,656.498047 548.998047,664.998047 C542.998047,673.498047 529.498047,675.998045 531.998047,686.998047 C534.498047,697.998049 531.498047,709.498045 537.998047,711.998047 C544.498046,714.498049 560.498046,698.998047 564.998047,692.998047 C569.498047,686.998047 571.998046,673.998047 571.998047,669.498047 C571.998047,664.998047 561.998047,661.498047 561.998047,661.498047 Z" id="Path-250" fill="#52A6FF"></path>
                <path d="M617.998047,554.998047 C617.998047,554.998047 600.498047,593.998047 593.998047,602.998047 C587.498047,611.998047 571.998047,617.998047 571.998047,621.498047 C571.998047,624.998047 561.998047,642.998047 561.998047,649.498047 C561.998047,655.998047 572.998047,668.998047 575.498047,665.998047 C577.998047,662.998047 593.498047,663.498047 595.498047,651.998047 C597.498047,640.498047 594.998047,633.498047 599.998047,626.498047 C604.998047,619.498047 620.498047,616.498047 620.498047,607.498047 C620.498047,598.498047 628.498047,566.498047 624.498047,562.498047 C620.498047,558.498047 617.998047,554.998047 617.998047,554.998047 Z" id="Path-251" fill="#52A6FF"></path>
                <path d="M583.498047,361.498047 C583.498047,361.498047 567.998047,357.998047 570.998047,384.498047 C573.998047,410.998047 563.498047,430.498048 573.498047,438.998047 C583.498047,447.498046 603.998046,444.996095 607.498047,435.498047 C610.998048,425.999999 611.498046,407.498047 604.498047,387.498047 C597.498048,367.498047 599.464374,361.998047 594.498047,361.998047 C589.53172,361.998047 583.498047,361.498047 583.498047,361.498047 Z" id="Path-252" fill="#52A6FF"></path>
                <path d="M552.498047,306.498047 C552.498047,306.498047 548.998047,327.498047 563.998047,338.498047 C578.998047,349.498047 591.998046,359.498047 596.998047,346.998047 C601.998048,334.498047 609.498046,313.998047 599.998047,295.998047 C590.498048,277.998047 577.998047,272.998047 572.498047,272.998047 C566.998047,272.998047 552.998047,277.498047 552.998047,282.498047 C552.998047,287.498047 552.498047,306.498047 552.498047,306.498047 Z" id="Path-253" fill="#52A6FF"></path>
                <path d="M627.998047,355.498047 C627.998047,355.498047 618.998047,355.998047 618.998047,368.998047 C618.998047,381.998047 612.998047,399.498047 615.998047,406.998047 C618.998047,414.498047 612.998047,421.996094 620.498047,423.998047 C627.998047,426 639.998047,389.998047 639.998047,384.998047 C639.998047,379.998047 641.998047,349.498047 638.998047,347.498047 C635.998047,345.498047 627.998047,355.498047 627.998047,355.498047 Z" id="Path-254" fill="#52A6FF"></path>
                <path d="M531.998047,219.498047 C531.998047,219.498047 587.998047,212.498047 600.998047,244.998047 C613.998047,277.498047 611.498047,282.99805 611.498047,286.998047 C611.498047,290.998044 596.151596,276.998046 583.998047,268.998047 C571.844498,260.998048 554.498047,257.498046 549.998047,259.998047 C545.498047,262.498048 533.998047,259.998048 533.998047,252.498047 C533.998047,244.998046 531.998047,219.498047 531.998047,219.498047 Z" id="Path-255" fill="#52A6FF"></path>
                <path d="M569.998047,207.998047 C569.998047,207.998047 548.998047,205.498047 532.998047,207.998047 C516.998047,210.498047 497.998047,190.498047 497.998047,184.998047 C497.998047,179.498046 503.998047,167.998047 518.498047,172.498047 C532.998047,176.998047 551.998047,181.998047 553.998047,186.998047 C555.998047,191.998047 568.998047,197.998045 571.498047,201.998047 C573.998047,205.998048 569.998047,207.998047 569.998047,207.998047 Z" id="Path-256" fill="#52A6FF"></path>
                <path d="M622.498047,450.998047 C622.498047,450.998047 618.498047,464.998047 618.498047,467.498047 C618.498047,469.998047 615.998047,472.498047 615.998047,485.998047 C615.998047,499.498047 606.998047,515.998047 609.498047,515.998047 C611.998047,515.998047 623.498047,509.998047 627.498047,494.998047 C631.498046,479.998047 636.498047,442.998047 631.998046,442.998047 C627.498046,442.998047 622.498047,450.998047 622.498047,450.998047 Z" id="Path-257" fill="#52A6FF"></path>
                <path d="M141.998047,288.998047 C141.998047,288.998047 117.498047,305.498047 114.998047,313.998047 C112.498047,322.498047 108.498047,335.998047 120.498047,324.998047 C132.498047,313.998047 139.998046,300.498047 146.998047,300.498047 C153.998047,300.498047 154.998046,289.998047 150.998047,289.998047 C146.998047,289.998047 141.998047,288.998047 141.998047,288.998047 Z" id="Path-258" fill="#52A6FF"></path>
                <path d="" id="Path-239" fill="#EA384B"></path>
                <path d="M153.505094,278.233112 C153.505094,278.233112 163.361744,254.57161 175.682555,254.57161 C188.003367,254.57161 183.955872,259.174284 186.420034,259.174284 C188.884197,259.174284 201.493034,271.031786 191.636385,278.233113 C181.779736,285.43444 184.334205,277.204351 181.432267,283.376917 C178.53033,289.549483 174.861168,297.77957 172.397005,293.664527 C169.932843,289.549483 159.254806,294.693288 157.612032,291.607005 C155.969257,288.520722 153.505094,278.233112 153.505094,278.233112 Z" id="Path-3" fill="#52A6FF" transform="translate(174.427304, 274.671884) rotate(26.000000) translate(-174.427304, -274.671884) "></path>
                <path d="M248.000001,358.000001 C248.000001,358.000001 251.000001,347 240.000001,338 C229.000001,329 215.999999,328 215.999999,331 C215.999999,334 190,343 192,363 C194,383 187,386 192,392 C197,398 230.999999,415 235,407 C239.000001,399 248.000004,396 248.000001,386 C247.999999,376 248.000001,358.000001 248.000001,358.000001 Z" id="Path-4" fill="#52A6FF"></path>
                <path d="M181.999998,293 C181.999998,293 155,308 152,312 C149,316 144,339 151,346 C158,353 167.000002,381 182,360 C196.999998,339 193,337.837337 207.999998,326.837337 C215.291357,321.49034 215.494194,311.692379 213.087871,303.034009 C210.543836,293.880125 205.083455,286 201.999998,286 C195.999997,286 181.999998,293 181.999998,293 Z" id="Path-5" fill="#52A6FF"></path>
                <path d="M432,175 C427.127255,168.694095 432,164 432,164 C432,164 441,161.266059 455,164 C469,166.733941 485,172.999999 488,180 C490.478396,185.782926 493.269576,187.739923 491.000001,191.000001 C490.522346,191.686117 472.86934,198.999998 472.000001,198.999999 C467.000001,199.000001 470.000001,186.000002 449.000001,186.000001 C443.249654,186 436.872745,181.305905 432,175 Z" id="Path-7" fill="#52A6FF"></path>
                <path d="M422.622777,288.244385 C416.622777,282.244385 418.622777,274.244386 424.622777,270.244386 C430.622777,266.244386 444.622776,249.244386 447.622776,242.244386 C450.622776,235.244386 462.622777,230.244385 472.622777,242.244386 C482.622777,254.244387 485.622777,283.244386 485.622777,290.244386 C485.622777,297.244386 449.622776,318.244385 442.622776,307.244385 C435.622776,296.244385 428.622777,294.244385 422.622777,288.244385 Z" id="Path-9" fill="#52A6FF"></path>
                <path d="M469,208 C464,213 459,222 464,226 C467.030661,228.424529 483,242 483,242 C483,242 491.923334,263.636794 493.357857,266 C497,272 515,262 521,262 C527,262 525,240 521,224 C517,208 499,203 489,203 C479,203 474,203 469,208 Z" id="Path-10" fill="#52A6FF"></path>
                <path d="M529.841248,271.580499 C529.841248,271.580499 513.841248,267.580498 504.841248,280.580499 C495.841248,293.5805 507.841248,299.5805 507.841248,307.580499 C507.841248,315.580498 523.841249,322.5805 526.841248,313.580499 C529.841248,304.580498 538.841249,292.580499 538.841248,284.580499 C538.841248,276.580499 529.841248,271.580499 529.841248,271.580499 Z" id="Path-11" fill="#52A6FF" transform="translate(520.167694, 294.401361) rotate(-30.000000) translate(-520.167694, -294.401361) "></path>
                <path d="M420.611328,166.958984 C420.611328,166.958984 417.625169,162.201625 403.625169,159.201625 C401.894886,158.83085 400.134054,158.460075 398.369102,158.100628 C385.853536,155.551725 381.130802,153.329759 377.625169,155.958984 C373.625169,158.958984 363.625169,167.201624 363.625169,173.201625 C363.625169,179.201626 362.625169,191.201624 377.625169,185.201625 C392.625169,179.201626 403.625168,185.201626 412.611328,185.201626 C421.597488,185.201626 420.611328,166.958984 420.611328,166.958984 Z" id="Path-14" fill="#52A6FF" transform="translate(392.127301, 170.806905) rotate(-5.000000) translate(-392.127301, -170.806905) "></path>
                <path d="M333,168 C333,168 320,168 317,176 C314,184 317,183 317,193 C317,203 336,197 342,193 C348,189 351.999999,192 355.999999,186 C359.999999,180 362,167 352,167 C342,167 333,168 333,168 Z" id="Path-19" fill="#52A6FF"></path>
            </g>
        </g>
    </g>
</svg>