<?xml version="1.0" encoding="UTF-8" standalone="no"?>
<svg width="1000px" height="1000px" viewBox="0 0 1000 1000" version="1.1" xmlns="http://www.w3.org/2000/svg" xmlns:xlink="http://www.w3.org/1999/xlink">
    <!-- Generator: Sketch 39.1 (31720) - http://www.bohemiancoding.com/sketch -->
    <title>tangerine - red</title>
    <desc>Created with Sketch.</desc>
    <defs></defs>
    <g id="Page-1" stroke="none" stroke-width="1" fill="none" fill-rule="evenodd">
        <g id="tangerine---red">
            <path d="M302,339.996094 C302,339.996094 231,357.996094 231,410.996094 C231,410.996094 205,446.996094 217,516.996094 C217,516.996094 219,546.996094 235,552.996094 C235,552.996094 225,582.996094 265,615.996094 C265,615.996094 261,663.996094 318,692.996094 C318,692.996094 311,718.996094 341,736.996094 C341,736.996094 371,760.996094 383,754.996094 C383,754.996094 384,777.996094 405,786.996094 C405,786.996094 451,810.996094 461,805.996094 C461,805.996094 469,828.996094 525,830.996094 L553,829.996094 C553,829.996094 573,838.996094 595,817.996094 C595,817.996094 624,832.996094 671,787.996094 C671,787.996094 697,760.996094 699,746.996094 C699,746.996094 719,742.996094 733,713.996094 C733,713.996094 750,686.996094 746,671.996094 C746,671.996094 759,624.996094 748,611.996094 C748,611.996094 765,569.996094 753,552.996094 C753,552.996094 760,529.992187 756,514.996094 C756,514.996094 776,488.996094 762,463.996094 C762,463.996094 765,424.996094 759,417.996094 C759,417.996094 759,374.996094 742,352.996094 C742,352.996094 729,308.996094 715,297.996094 C715,297.996094 674,232.996094 623,244.996094 C572,256.996094 302,339.996094 302,339.996094 Z" id="Path-217" fill="#D00C1D"></path>
            <path d="M477.060303,561.249024 C475.371582,558.749024 448.996094,530.996094 452.996094,573.996094 C452.996094,573.996094 445.996094,608.996094 440.996094,609.996094 C440.996094,609.996094 468.996094,632.996094 491.996094,633.996094 C491.996094,633.996094 505.996094,632.996094 512.996094,612.996094 C512.996094,612.996094 518.749023,600.999023 495.749023,578.999023 C472.749023,556.999023 478.749023,563.749024 477.060303,561.249024 Z" id="Path-218" fill="#EB374A"></path>
            <path d="M541.998047,520.998047 C541.998047,520.998047 516.998047,478.998047 500.998047,514.498047 C484.998047,549.998047 480.498047,545.998046 480.498047,552.498047 C480.498047,558.998048 517.498047,587.998046 520.498047,590.498047 C523.498047,592.998048 536.498047,595.498046 544.498047,580.498047 C552.498047,565.498048 561.998047,568.998046 561.998047,561.998047 C561.998047,554.998048 563.998047,540.498046 555.998047,534.498047 C547.998047,528.498048 541.998047,520.998047 541.998047,520.998047 Z" id="Path-219" fill="#EA384B"></path>
            <path d="M423.498047,631.498047 C423.498047,631.498047 429.998047,614.998047 453.998047,628.998047 C477.998047,642.998047 483.996094,629.498047 491.998047,639.998047 C500,650.498047 483.498047,667.998047 466.498047,679.498047 C449.498047,690.998047 434.498047,696.498047 428.998047,696.498047 C423.498047,696.498047 417.498047,696.998047 409.498047,681.498047 C401.498047,665.998047 423.498047,631.498047 423.498047,631.498047 Z" id="Path-220" fill="#EA384B"></path>
            <path d="M385.998047,607.498047 C385.998047,607.498047 430.998047,607.498047 415.998047,629.498047 C400.998047,651.498047 397.998047,647.998047 397.998047,658.998047 C397.998047,669.998047 380.498047,670.998047 369.498047,666.998047 C358.498047,662.998047 335.498047,647.498047 330.498047,635.498047 C325.498047,623.498047 325.498047,608.498047 327.998047,603.998047 C330.498047,599.498047 334.498047,603.998047 355.998047,603.998047 C377.498047,603.998047 385.998047,607.498047 385.998047,607.498047 Z" id="Path-221" fill="#EA384B"></path>
            <path d="M269.498047,574.498047 C269.498047,574.498047 280.998047,555.498047 291.998047,579.998047 C302.998047,604.498047 314.998047,592.49805 314.998047,617.498047 C314.998047,642.498044 318.498047,652.498046 300.998047,634.998047 C283.498047,617.498048 274.998047,609.998047 267.998047,590.998047 C260.998047,571.998047 269.498047,574.498047 269.498047,574.498047 Z" id="Path-222" fill="#EA384B"></path>
            <path d="M318.498047,683.99805 L315.498047,692.998047 C315.498047,692.998047 256.998047,653.998047 266.498047,614.998047 C266.498047,614.998047 268.498047,606.998047 314.498047,658.998047 C322.172389,667.67339 318.498047,683.99805 318.498047,683.99805 Z" id="Path-223" fill="#EA384B"></path>
            <path d="M337.998047,726.498047 C337.998047,726.498047 325.498047,724.498047 322.998047,711.498047 C320.498047,698.498047 328.998047,699.998047 328.998047,692.998047 C328.998047,685.998047 328.998047,671.498047 326.998047,661.998047 C324.998047,652.498047 332.498046,644.498047 349.498047,664.998047 C366.498047,685.498047 392.99805,681.998048 396.498047,681.998047 C399.998044,681.998046 422.49805,707.99805 406.498047,718.998047 C390.498044,729.998044 396.998047,739.498047 396.998047,739.498047 C396.998047,739.498047 395.998046,753.99805 379.998047,753.998047 C363.998047,753.998044 337.998047,726.498047 337.998047,726.498047 Z" id="Path-224" fill="#EA384B"></path>
            <path d="M363.498047,528.998047 C363.498047,528.998047 364.998047,487.498047 383.498047,505.998047 C401.998047,524.498047 430.498047,535.998044 436.498047,535.998047 C442.498047,535.99805 453.498047,549.498048 440.998047,571.998047 C428.498047,594.498046 445.886936,605.498047 423.498047,608.998046 C401.109158,612.498045 366.498047,586.498048 362.498047,581.998047 C358.498047,577.498046 357.498047,552.998048 359.998047,545.498047 C362.498047,537.998046 363.498047,528.998047 363.498047,528.998047 Z" id="Path-225" fill="#EA384B"></path>
            <path d="M303.998047,481.498047 C303.998047,481.498047 351.998047,480.998047 351.998047,524.998047 C351.998047,568.998047 358.998047,572.49805 347.998047,580.498047 C336.998047,588.498044 321.998047,590.99805 309.498047,580.498047 C296.998047,569.998044 284.498047,563.49805 284.498047,560.498047 C284.498047,557.498044 272.498047,540.498047 279.998047,510.998047 C287.498047,481.498047 303.998047,481.498047 303.998047,481.498047 Z" id="Path-226" fill="#EA384B"></path>
            <path d="M259.498048,581.532768 C259.498048,581.532768 279.998047,619.998047 255.998047,606.998047 C231.998047,593.998047 234.998047,552.998047 234.998047,552.998047 C234.998047,552.998047 247.998047,556.963326 253.998048,569.498047 C259.998049,582.032768 259.498048,581.532768 259.498048,581.532768 Z" id="Path-227" fill="#EA384B"></path>
            <path d="M274.498047,444.998047 C274.498047,444.998047 229.998047,453.998047 229.998047,498.998047 C229.998047,543.998047 245.498047,553.998047 245.498047,553.998047 C245.498047,553.998047 259.498047,566.498047 265.998047,566.498047 C272.498047,566.498047 281.998047,555.498047 275.998047,548.998047 C269.998047,542.498047 269.498047,497.998047 274.498047,486.498047 C279.498047,474.998047 296.498047,463.498047 291.498047,455.498047 C286.498047,447.498047 274.498047,444.998047 274.498047,444.998047 Z" id="Path-228" fill="#EA384B"></path>
            <path d="M426.498047,409.998047 C426.498047,409.998047 444.498047,487.498047 449.498047,500.998047 C454.498047,514.498047 459.498047,529.498047 452.998047,529.498047 C446.498047,529.498047 414.498047,508.998047 406.498047,508.998047 C398.498047,508.998047 371.498047,480.998047 378.498047,463.998047 C385.498047,446.998047 389.498046,418.998047 401.498047,412.498047 C413.498047,405.998047 426.498047,409.998047 426.498047,409.998047 Z" id="Path-229" fill="#EA384B"></path>
            <path d="M457.498047,389.498047 C457.498047,389.498047 473.996094,374.498047 486.998047,414.498047 C500,454.498047 511.498047,457.998045 511.498047,474.498047 C511.498047,490.998049 505.498047,498.498045 491.998047,501.998047 C478.498047,505.498049 459.998047,512.498045 453.998047,484.998047 C447.998047,457.498049 430.998047,425.498047 434.498047,407.498047 C437.998047,389.498047 457.498047,389.498047 457.498047,389.498047 Z" id="Path-230" fill="#EA384B"></path>
            <path d="M521.998047,372.498047 C521.998047,372.498047 477.498047,358.998047 491.998047,394.998047 C506.498047,430.998047 516.498048,453.498047 520.498047,464.998047 C524.498046,476.498046 547.998044,480.498047 554.498047,464.498047 C560.99805,448.498046 580.998044,446.498047 576.498047,429.498047 C571.99805,412.498046 566.998048,397.998047 553.498047,387.998047 C539.998046,377.998047 521.998047,372.498047 521.998047,372.498047 Z" id="Path-231" fill="#EA384B"></path>
            <path d="M625.498047,479.998047 C625.498047,479.998047 614.498047,440.498047 596.998047,440.498047 C579.498047,440.498047 571.498047,451.998047 565.498047,465.998047 C559.498047,479.998047 533.998047,475.498047 546.998047,502.498047 C559.998047,529.498047 573.998047,538.498047 573.998047,548.498047 C573.998047,558.498047 599.498045,560.998047 612.498047,536.998047 C625.498049,512.998047 628.498045,515.998047 628.498047,503.998047 C628.498049,491.998047 625.498047,479.998047 625.498047,479.998047 Z" id="Path-232" fill="#EA384B"></path>
            <path d="M564.998047,577.998047 C564.998047,577.998047 572.998047,552.998047 580.998047,567.498047 C588.998047,581.998047 596.498047,606.998046 590.498047,615.498047 C584.498047,623.998047 586.998047,637.498043 564.998047,635.498047 C542.998047,633.498051 535.498047,635.49805 529.998047,631.498047 C524.498047,627.498044 526.998047,619.998046 541.498047,606.498047 C555.998047,592.998047 564.998047,577.998047 564.998047,577.998047 Z" id="Path-233" fill="#EA384B"></path>
            <path d="M472.998047,698.498047 C472.998047,698.498047 497.498047,689.998047 503.498047,668.498047 C509.498047,646.998047 519.498047,653.498047 519.498047,653.498047 C519.498047,653.498047 543.498047,670.99805 540.998047,704.498047 C538.498047,737.998044 516.996094,730.99805 508.498047,736.498047 C500,741.998044 468.498047,738.998046 459.998047,723.498047 C451.498047,707.998048 451.498047,701.185943 457.498047,698.498047 C463.498047,695.810151 472.998047,698.498047 472.998047,698.498047 Z" id="Path-234" fill="#EA384B"></path>
            <path d="M403.998047,756.998047 C403.998047,756.998047 404.998047,747.998047 396.498047,752.498047 C387.998047,756.998047 385.729906,768.998047 392.998047,772.998047 C400.266187,776.998047 406.998047,785.498049 409.498047,785.498047 C411.998047,785.498045 425.498047,788.498047 421.498047,782.498047 C417.498047,776.498047 410.498047,769.998047 410.498047,766.498047 C410.498047,762.998047 403.998047,756.998047 403.998047,756.998047 Z" id="Path-235" fill="#EA384B"></path>
            <path d="M456.998047,732.998047 C456.998047,732.998047 434.998047,697.498047 419.498047,718.998047 C403.998047,740.498047 409.498047,756.498046 415.998047,763.998047 C422.498047,771.498048 431.498046,784.998049 437.498047,788.498047 C443.498048,791.998044 457.998046,796.498049 462.998047,796.498047 C467.998048,796.498044 479.996096,794.498049 489.998047,788.498047 C499.999998,782.498044 515.998049,773.705638 502.998047,763.998047 C489.998044,754.290456 492.998046,751.498048 474.998047,746.998047 C456.998048,742.498046 456.998047,732.998047 456.998047,732.998047 Z" id="Path-236" fill="#EA384B"></path>
            <path d="M480.498047,818.998047 C480.498047,818.998047 459.996094,807.998047 479.998047,800.498047 C500,792.998047 505.498045,782.998047 516.998047,790.498047 C528.498049,797.998047 539.498047,794.498047 539.498047,794.498047 C539.498047,794.498047 549.498045,791.998047 552.998047,803.498047 C556.498049,814.998047 563.498047,819.998047 563.498047,819.998047 C563.498047,819.998047 573.998045,831.498047 548.998047,826.998047 C523.998049,822.498047 509.498047,829.998047 497.498047,824.998047 C485.498047,819.998047 480.498047,818.998047 480.498047,818.998047 Z" id="Path-237" fill="#EA384B"></path>
            <path d="M594.998047,768.998047 C594.998047,768.998047 589.498047,787.998047 557.498047,784.998047 C525.498047,781.998047 520.498047,788.998047 516.998047,778.998047 C513.498047,768.998047 501.998047,759.498047 510.498047,750.998047 C518.998047,742.498047 532.498046,729.998047 539.498047,729.998047 C546.498047,729.998047 559.998046,742.998047 565.998047,731.998047 C571.998047,720.998047 597.498046,734.337429 600.998047,745.998047 C604.498047,757.658665 594.998047,768.998047 594.998047,768.998047 Z" id="Path-239" fill="#EA384B"></path>
            <path d="M552.998047,682.498047 C552.998047,682.498047 522.998047,649.498047 542.998047,645.498047 C562.998047,641.498047 580.498047,645.998047 584.498047,652.498047 C588.498047,658.998047 610.498047,673.498046 597.498047,681.998047 C584.498047,690.498048 583.498047,700.998046 574.498047,700.998047 C565.498047,700.998048 556.998047,697.998046 556.998047,693.998047 C556.998047,689.998048 552.998047,682.498047 552.998047,682.498047 Z" id="Path-240" fill="#EA384B"></path>
            <path d="M586.998047,802.998047 C586.998047,802.998047 609.998047,825.498047 626.998047,811.998047 C643.998047,798.498047 648.498047,781.998047 638.998047,774.498047 C629.498047,766.998047 625.498047,767.498047 614.498047,770.998047 C603.498047,774.498047 598.998047,772.567925 592.998047,782.498047 C586.998047,792.428169 586.998047,802.998047 586.998047,802.998047 Z" id="Path-241" fill="#EA384B"></path>
            <path d="M629.498047,684.498047 C629.498047,684.498047 605.498047,700.998047 613.498047,723.498047 C621.498047,745.998047 615.998048,765.998047 631.998047,755.998047 C647.998046,745.998047 655.498048,748.998047 665.998047,732.498047 C676.498046,715.998047 684.498048,699.498047 678.498047,685.998047 C672.498046,672.498047 668.498048,667.998047 664.498047,667.998047 C660.498046,667.998047 654.784375,672.498047 650.498047,672.498047 C646.211719,672.498047 629.498047,684.498047 629.498047,684.498047 Z" id="Path-242" fill="#EA384B"></path>
            <path d="M601.498047,621.998047 C601.498047,621.998047 586.998047,648.498047 607.998047,662.998047 C628.998047,677.498047 637.498047,672.998047 654.498047,664.998047 C671.498047,656.998047 674.498047,642.998047 674.498047,628.498047 C674.498047,613.998047 654.998047,604.498047 647.998047,610.498047 C640.998047,616.498047 637.498047,617.998046 630.498047,617.998047 C623.498047,617.998048 616.998047,610.498047 612.498047,610.498047 C607.998047,610.498047 601.498047,621.998047 601.498047,621.998047 Z" id="Path-243" fill="#EA384B"></path>
            <path d="M601.998047,581.498047 C601.998047,581.498047 607.998047,617.498047 636.498047,600.998047 C664.998047,584.498047 668.998047,574.498047 668.998047,574.498047 C668.998047,574.498047 678.498047,562.998047 675.498047,537.498047 C672.498047,511.998047 662.998047,522.998047 654.498047,522.998047 C645.998047,522.998047 631.998047,517.998048 626.498047,534.998047 C620.998047,551.998046 611.998047,555.498046 606.998047,560.498047 C601.998047,565.498048 601.998047,581.498047 601.998047,581.498047 Z" id="Path-244" fill="#EA384B"></path>
            <path d="M262.998047,414.998047 C262.998047,414.998047 261.998047,437.998047 242.998047,456.498047 C223.998047,474.998047 218.498047,517.498047 222.998047,527.998047 C222.998047,527.998047 200.998047,480.998047 223.998047,424.998047 C223.998047,424.998047 239.498048,401.998047 249.498048,401.998047 C259.498048,401.998047 262.998047,414.998047 262.998047,414.998047 Z" id="Path-245" fill="#EA384B"></path>
            <path d="M590.998047,386.498047 C590.998047,386.498047 566.498047,386.998047 579.998047,407.998047 C593.498047,428.998047 603.498048,440.498047 608.998047,420.998047 C614.498045,401.498047 625.998047,398.998047 625.998047,398.998047 C625.998047,398.998047 635.998046,385.998047 620.998047,382.498047 C605.998047,378.998047 603.998046,383.498047 600.998047,383.498047 C597.998047,383.498047 590.998047,386.498047 590.998047,386.498047 Z" id="Path-246" fill="#EA384B"></path>
            <path d="M642.998047,407.498047 C642.998047,407.498047 634.498047,400.498047 628.498047,406.998047 C622.498047,413.498047 620.248047,437.498046 627.998047,448.998047 C635.748047,460.498048 646.998048,471.996092 644.998047,485.998047 C642.998046,500.000001 642.998046,508.498046 650.498047,512.998047 C657.998048,517.498048 674.998046,520.998046 678.498047,504.498047 C681.998048,487.998048 688.498046,455.998047 684.998047,443.498047 C681.498048,430.998046 673.998046,416.998047 666.998047,413.498047 C659.998048,409.998047 642.998047,407.498047 642.998047,407.498047 Z" id="Path-247" fill="#EA384B"></path>
            <path d="M712.498047,529.998047 C712.498047,529.998047 682.998047,520.998047 686.498047,536.998047 C689.998047,552.998047 669.998047,581.998047 673.498047,594.498047 C676.998047,606.998047 682.498047,619.998047 692.498047,612.998047 C702.498047,605.998047 709.498047,604.998047 709.498047,604.998047 C709.498047,604.998047 719.998049,600.498047 722.998047,597.498047 C725.998045,594.498047 732.498045,567.498047 732.498047,557.498047 C732.498049,547.498047 728.998049,539.498047 724.998047,535.998047 C720.998045,532.498047 712.498047,529.998047 712.498047,529.998047 Z" id="Path-248" fill="#EA384B"></path>
            <path d="M697.998047,619.998047 C697.998047,619.998047 681.498047,620.498047 681.498047,633.498047 C681.498047,646.498047 675.498047,662.998047 679.498047,672.998047 C683.498047,682.998047 687.498047,684.998047 695.498047,678.998047 C703.498047,672.998047 726.998047,654.998047 729.998047,637.498047 C732.998047,619.998047 731.498047,609.498047 731.498047,607.498047 C731.498047,605.498047 722.498047,600.998047 716.998047,607.998047 C711.498047,614.998047 697.998047,619.998047 697.998047,619.998047 Z" id="Path-249" fill="#EA384B"></path>
            <path d="M683.998047,735.498047 C683.998047,735.498047 676.998047,730.498047 670.998047,738.998047 C664.998047,747.498047 651.498047,749.998045 653.998047,760.998047 C656.498047,771.998049 653.498047,783.498045 659.998047,785.998047 C666.498046,788.498049 682.498046,772.998047 686.998047,766.998047 C691.498047,760.998047 693.998046,747.998047 693.998047,743.498047 C693.998047,738.998047 683.998047,735.498047 683.998047,735.498047 Z" id="Path-250" fill="#EA384B"></path>
            <path d="M739.998047,628.998047 C739.998047,628.998047 722.498047,667.998047 715.998047,676.998047 C709.498047,685.998047 693.998047,691.998047 693.998047,695.498047 C693.998047,698.998047 683.998047,716.998047 683.998047,723.498047 C683.998047,729.998047 694.998047,742.998047 697.498047,739.998047 C699.998047,736.998047 715.498047,737.498047 717.498047,725.998047 C719.498047,714.498047 716.998047,707.498047 721.998047,700.498047 C726.998047,693.498047 742.498047,690.498047 742.498047,681.498047 C742.498047,672.498047 750.498047,640.498047 746.498047,636.498047 C742.498047,632.498047 739.998047,628.998047 739.998047,628.998047 Z" id="Path-251" fill="#EA384B"></path>
            <path d="M705.498047,435.498047 C705.498047,435.498047 689.998047,431.998047 692.998047,458.498047 C695.998047,484.998047 685.498047,504.498048 695.498047,512.998047 C705.498047,521.498046 725.998046,518.996095 729.498047,509.498047 C732.998048,499.999999 733.498046,481.498047 726.498047,461.498047 C719.498048,441.498047 721.464374,435.998047 716.498047,435.998047 C711.53172,435.998047 705.498047,435.498047 705.498047,435.498047 Z" id="Path-252" fill="#EA384B"></path>
            <path d="M674.498047,380.498047 C674.498047,380.498047 670.998047,401.498047 685.998047,412.498047 C700.998047,423.498047 713.998046,433.498047 718.998047,420.998047 C723.998048,408.498047 731.498046,387.998047 721.998047,369.998047 C712.498048,351.998047 699.998047,346.998047 694.498047,346.998047 C688.998047,346.998047 674.998047,351.498047 674.998047,356.498047 C674.998047,361.498047 674.498047,380.498047 674.498047,380.498047 Z" id="Path-253" fill="#EA384B"></path>
            <path d="M749.998047,429.498047 C749.998047,429.498047 740.998047,429.998047 740.998047,442.998047 C740.998047,455.998047 734.998047,473.498047 737.998047,480.998047 C740.998047,488.498047 734.998047,495.996094 742.498047,497.998047 C749.998047,500 761.998047,463.998047 761.998047,458.998047 C761.998047,453.998047 763.998047,423.498047 760.998047,421.498047 C757.998047,419.498047 749.998047,429.498047 749.998047,429.498047 Z" id="Path-254" fill="#EA384B"></path>
            <path d="M653.998047,293.498047 C653.998047,293.498047 709.998047,286.498047 722.998047,318.998047 C735.998047,351.498047 733.498047,356.99805 733.498047,360.998047 C733.498047,364.998044 718.151596,350.998046 705.998047,342.998047 C693.844498,334.998048 676.498047,331.498046 671.998047,333.998047 C667.498047,336.498048 655.998047,333.998048 655.998047,326.498047 C655.998047,318.998046 653.998047,293.498047 653.998047,293.498047 Z" id="Path-255" fill="#EA384B"></path>
            <path d="M691.998047,281.998047 C691.998047,281.998047 670.998047,279.498047 654.998047,281.998047 C638.998047,284.498047 619.998047,264.498047 619.998047,258.998047 C619.998047,253.498046 625.998047,241.998047 640.498047,246.498047 C654.998047,250.998047 673.998047,255.998047 675.998047,260.998047 C677.998047,265.998047 690.998047,271.998045 693.498047,275.998047 C695.998047,279.998048 691.998047,281.998047 691.998047,281.998047 Z" id="Path-256" fill="#EA384B"></path>
            <path d="M744.498047,524.998047 C744.498047,524.998047 740.498047,538.998047 740.498047,541.498047 C740.498047,543.998047 737.998047,546.498047 737.998047,559.998047 C737.998047,573.498047 728.998047,589.998047 731.498047,589.998047 C733.998047,589.998047 745.498047,583.998047 749.498047,568.998047 C753.498046,553.998047 758.498047,516.998047 753.998046,516.998047 C749.498046,516.998047 744.498047,524.998047 744.498047,524.998047 Z" id="Path-257" fill="#EA384B"></path>
            <path d="M263.998047,362.998047 C263.998047,362.998047 239.498047,379.498047 236.998047,387.998047 C234.498047,396.498047 230.498047,409.998047 242.498047,398.998047 C254.498047,387.998047 261.998046,374.498047 268.998047,374.498047 C275.998047,374.498047 276.998046,363.998047 272.998047,363.998047 C268.998047,363.998047 263.998047,362.998047 263.998047,362.998047 Z" id="Path-258" fill="#EA384B"></path>
            <path d="M271.996094,363.996094 C271.996094,363.996094 254.996094,390.996094 254.996094,414.996094 C254.996094,438.996094 279.996094,492.996094 279.996094,502.996094 C279.996094,512.996094 280.996094,525.996094 280.996094,525.996094 C280.996094,525.996094 322.996094,477.996094 335.996094,473.996094 C335.996094,473.996094 359.996094,458.996094 362.996094,447.996094 C362.996094,447.996094 391.996094,422.996094 409.996094,410.996094 C409.996094,410.996094 462.996094,377.996094 488.996094,360.996094 L499.996094,353.996094 C499.996094,353.996094 528.996094,381.996094 542.996094,382.996094 C542.996094,382.996094 594.996094,385.996094 600.996094,376.996094 C600.996094,376.996094 612.996094,366.996094 636.996094,372.996094 C636.996094,372.996094 666.996094,379.996094 683.996094,380.996094 C700.996094,381.996094 708.996094,391.996094 708.996094,391.996094 C708.996094,391.996094 705.996094,336.996094 675.996094,305.996094 L626.996094,254.996094 C626.996094,254.996094 618.996094,225.996094 640.996094,220.996094 C640.996094,220.996094 634.996094,204.996094 606.996094,201.996094 C606.996094,201.996094 524.996094,193.996094 497.996094,207.996094 L486.996094,213.996094 C486.996094,213.996094 465.996094,196.996094 461.996094,188.996094 L451.996094,199.996094 C451.996094,199.996094 438.996094,193.996094 433.996094,199.996094 C428.996094,205.996094 426.996094,211.996094 426.996094,211.996094 C426.996094,211.996094 391.996094,202.996094 376.996094,225.996094 C361.996094,248.996094 340.996094,279.996094 340.996094,279.996094 C340.996094,279.996094 303.996094,282.996094 289.996094,284.996094 C275.996094,286.996094 254.996094,311.996094 247.996094,311.996094 C240.996094,311.996094 224.996094,334.996094 217.996094,341.996094 L232.996094,350.996094 C232.996094,350.996094 254.996094,349.996094 260.996094,351.996094 C266.996094,353.996094 271.996094,363.996094 271.996094,363.996094 Z" id="Path-259" fill="#74A72F"></path>
            <path d="M348.996094,115.996094 C348.996094,115.996094 331.996094,130.996094 342.996094,145.996094 C353.996094,160.996094 382.996096,245.996094 399.996094,282.996094 C416.996091,319.996094 441.996094,366.996094 441.996094,366.996094 L448.996094,379.996094 L487.996094,353.996094 C487.996094,353.996094 385.996092,156.996094 380.996094,143.996094 C375.996095,130.996094 377.996094,111.996094 366.996094,111.996094 C355.996093,111.996094 348.996094,115.996094 348.996094,115.996094 Z" id="Path-260" fill="#648E2B"></path>
            <path d="M365.998047,113.749023 C365.998047,113.749023 376.998047,111.498047 365.998047,126.498047 C354.998047,141.498047 341.998047,134.998047 341.998047,134.998047 C341.998047,134.998047 339.249023,131.999023 345.749023,123.499024 C352.249023,114.999024 365.998047,113.749023 365.998047,113.749023 Z" id="Path-261" fill="#76A928"></path>
            <path d="M372,141.996094 C372,141.996094 466,336.996094 475,345.996094 C484,354.996094 465,363.996094 465,363.996094 L363,144.996094 L372,141.996094 Z" id="Path-262" fill="#74A72F"></path>
            <path d="M450,377.996094 L414,398.996094 C414,398.996094 411,380.996094 419,380.996094 C419,380.996094 434.5,374.498047 441,374.498047 C441,374.498047 417.5,363.998047 410.5,366.498047 L393,365.998047 C393,365.998047 403,353.498047 415.5,353.998047 C428,354.498047 440.5,357.498047 440.5,357.498047 L459.5,364.498047 L466.5,365.498047 L482,354.998047 L477.5,339.998047 C477.5,339.998047 476.5,319.998047 480,313.498047 C483.5,306.998047 491.5,299.998047 491.5,299.998047 C491.5,299.998047 491,320.498047 489.5,321.998047 C488,323.498047 488.5,339.498047 488.5,339.498047 C488.5,339.498047 499,332.998047 502.5,332.498047 C502.5,332.498047 521.5,331.998047 524,331.998047 L502.5,339.998047 L494,350.498047 C494,350.498047 485,358.998047 483.5,359.998047 C482,360.998047 450,377.996094 450,377.996094 Z" id="Path-263" fill="#648E2C"></path>
            <path d="M283,352.998047 C283,352.998047 351,351.498047 360.5,354.498047 C370,357.498047 384.5,362.498047 384.5,362.498047 C384.5,362.498047 370,340.998047 332.5,345.498047 C295,349.998047 283,352.998047 283,352.998047 Z" id="Path-264" fill="#648E2C"></path>
            <path d="M678,359.498047 C678,359.498047 631,327.998047 623,321.498047 C615,314.998047 590,307.498047 580,312.498047 C570,317.498047 553,325.498047 553,325.498047 C553,325.498047 567.716444,295.13292 609.5,306.498047 C609.5,306.498047 634,320.498047 638.5,323.998047 C638.5,323.998047 659.5,342.498045 662,342.998045 C664.5,343.498045 678,359.498047 678,359.498047 Z" id="Path-265" fill="#648E2C"></path>
            <path d="M481.5,229.998047 C481.5,229.998047 476.5,257.498047 476.5,269.498047 C476.5,281.498047 479,291.998047 479,291.998047 C479,291.998047 478.5,259.998047 481.5,249.998047 C484.5,239.998047 484.5,220.998047 484.5,220.998047 L481.5,229.998047 Z" id="Path-266" fill="#648E2C"></path>
            <path d="M333,382.498047 C333,382.498047 311.5,390.998047 306.5,416.998047 C301.5,442.998047 304,454.998047 304,459.498047 C304,463.998047 307,429.498047 310,424.498047 C313,419.498047 315,405.998047 324,395.498047 C333,384.998047 342,379.498047 342,379.498047 L333,382.498047 Z" id="Path-267" fill="#648E2C"></path>
            <path d="M359,283.996094 C359,283.996094 379,284.996094 385,290.996094 C391,296.996094 403,305.996094 403,305.996094 C403,305.996094 386,280.996094 380,280.996094 C374,280.996094 359,283.996094 359,283.996094 Z" id="Path-268" fill="#648E2C"></path>
            <path d="M543,258.996094 C543,258.996094 561,235.996094 576,235.996094 C591,235.996094 593,247.996094 597,247.996094 C601,247.996094 576,239.996094 576,239.996094 C576,239.996094 568,242.996094 562,247.996094 C556,252.996094 543,258.996094 543,258.996094 Z" id="Path-269" fill="#648E2C"></path>
        </g>
    </g>
</svg>